<svg id="圖層_1" data-name="圖層 1" xmlns="http://www.w3.org/2000/svg" viewBox="0 0 110.22 18.25"><title>未命名-1</title><path d="M11,10.73c.15,0,.92.13.92.43s-.3.27-.45.3a15.09,15.09,0,0,1-2.32.17,1.22,1.22,0,0,1-1.28-1.35c0-1.25,1.43-1.82,2.4-2.2a13.61,13.61,0,0,1,4.9-.75c2.25,0,5.08.23,5.08,3.13A3.45,3.45,0,0,1,18.71,13a9.65,9.65,0,0,1-3,1L12,14.86v.05c2,.35,5,.57,5.17,3.32.13,1.68-2.77,5.43-9.15,5.43-3.37,0-4.49-1.33-4.49-2S5,19.21,5.66,19.21c.18,0,.38.1.38.3a3,3,0,0,1-.58.75,6.35,6.35,0,0,0,2.42.57c3.68,0,7.43-2.12,7.43-3,0-1.37-3.73-1.47-4.65-1.47a11.08,11.08,0,0,0-2.23.2,3.57,3.57,0,0,1-.72.1c-.33,0-.42-.23-.38-.53a2.61,2.61,0,0,1,2.73-2.6c1.4-.1,8.32-1.27,8.32-3,0-1.08-1.87-1-2.57-1a15.28,15.28,0,0,0-5.38,1.05v.05Z" transform="translate(-3.49 -5.91)" style="fill:#e6e6e6"/><path d="M29,9.76a20.44,20.44,0,0,0-5.38,1.17V11h.68c.12,0,1.35-.1,1.35.28s-.55.42-.78.45c-1.22.2-3,1-4.15,1a.84.84,0,0,1-.95-.87,10.61,10.61,0,0,1,.35-1.73,3.47,3.47,0,0,1,2.38-2.42A24,24,0,0,1,31,5.91a12,12,0,0,1,6,1.32,6.49,6.49,0,0,1,2.63,5.53c0,3.6-3,6.45-5.93,8.12a24.32,24.32,0,0,1-10.32,2.8,5.68,5.68,0,0,1-2.15-.27,1.42,1.42,0,0,1-.58-1.33c0-1.85,1.3-3.5,2.4-4.87Zm-4.95,9c-.78,1-.68,1.37-.53,1.7.1.15.4.42,1.43.45a19,19,0,0,0,5.75-1.08c5.25-1.85,7.07-4.5,7.07-6.7,0-3.22-5.12-3.3-7.37-3.42a4.15,4.15,0,0,1-.83,1.85Z" transform="translate(-3.49 -5.91)" style="fill:#e6e6e6"/><path d="M59.78,14.86c2.53.6,3.7,1.92,3.7,3.15,0,5-8.72,5.77-12.32,5.77-1,0-4,0-4-1.45a5.27,5.27,0,0,1,1.28-2.22,6.6,6.6,0,0,1,2.15-.73c.12,0,.2,0,.2.18s-.25.37-.43.47a2.89,2.89,0,0,0-.42.38v.05c8.92.32,11.37-2.25,11.37-2.65,0-1.28-6.92-2.28-8.12-2.48s-2.55-.6-2.55-2.1a9.25,9.25,0,0,1,.8-3.32c.77-1.28,5.3-3.65,10.77-3.65a14.69,14.69,0,0,1,3.15.35c.58.12.65.32.65.82,0,1.85-.62,2.28-2.1,2.85a7.21,7.21,0,0,0-2.25,1.23,1.45,1.45,0,0,1-.62.25.35.35,0,0,1-.4-.38,5.58,5.58,0,0,1,1.82-1.75l0-.05c-6.45.23-9.22,2.55-9.25,3.13C53.13,13.06,52.81,13.23,59.78,14.86Z" transform="translate(-3.49 -5.91)" style="fill:#e6e6e6"/><path d="M73.46,13c-1.18,2.38-1.38,3.3-4.13,3.13-.85,1.1-2.27,3.15-2.27,4.65,0,.55.17.87.75.87.8,0,1.7-.75,4.3-2.6l.12,1.1c-1.47,1.35-4.17,4-6.3,4a1.53,1.53,0,0,1-1.57-1.68A6.57,6.57,0,0,1,65,20L65,19.93l-1.27,1L63.41,20a14.57,14.57,0,0,0,3.8-4,9.09,9.09,0,0,0-2.38.1l.28-.45c1.35-2.2,1.55-2.6,4.22-2.7.75-1,1.3-2.2,2.75-2.2.33,0,.8.07.8.47s-.72,1.28-1,1.63Z" transform="translate(-3.49 -5.91)" style="fill:#e6e6e6"/><path d="M79.18,16.76c.53-.48,3-2.85,3.6-2.85.2,0,.48.07.58,1.37,0,.6-.63,1.18-1,1.53-.8.72-2.57,2.7-2.57,3.82,0,.4.22.55.62.55,1,0,3.1-1.75,3.85-2.35l.15,1.08C83.11,21.13,80.46,24,78.61,24a1.52,1.52,0,0,1-1.48-1.64,5.91,5.91,0,0,1,.53-2.1l0-.05c-1,.85-2.65,3.1-4,3.1-1.22,0-1.9-1.4-1.9-2.48a8.06,8.06,0,0,1,3.48-6,1.82,1.82,0,0,1,1.1-.28c.35,0,1.62-.22,1.52.53a3.19,3.19,0,0,1-1,1.32,8.35,8.35,0,0,1-1.9,1.8,2.53,2.53,0,0,0-1.37,2.15c0,.13,0,.38.2.38a7.28,7.28,0,0,0,3-1.78Z" transform="translate(-3.49 -5.91)" style="fill:#e6e6e6"/><path d="M94,15.68c-.82,1.3-2,2.93-2,4.53,0,.4,0,1.25.57,1.25.85,0,3.15-2,4-2.55l.18.82C95.53,21,93,23.66,91.13,23.66c-.95,0-1.32-1-1.32-1.8A12.13,12.13,0,0,1,90,20c-.88.75-3.2,3.17-4.33,3.17s-1.82-2.4-1.82-3.27c0-2.95,5-5.45,7.1-5.58.52,0,.72.33,1.05.7.82-1.42,3-6.6,4.85-6.6a.89.89,0,0,1,.8.95,5.6,5.6,0,0,1-1.08,2.4Zm-8,4.7a.42.42,0,0,0,.37.48c.3.07,4.33-2.93,4.73-4.4C86.76,17.88,86.21,18.73,86.06,20.38Z" transform="translate(-3.49 -5.91)" style="fill:#e6e6e6"/><path d="M103.61,20.16c-1.13,1.37-3.33,3.62-5.23,3.62-1.47,0-2.15-1.7-2.15-3,0-3,3.13-6,4.63-6,.42,0,1.1.15,1.1.7,0,1.25-2.48,3.48-3.53,4.2-.2,1,.18,1.58,1.33,1.58,1.32,0,2.62-1.33,3.62-2.05Zm-2.4-6.95a2.25,2.25,0,0,1,2.17-1.93.8.8,0,0,1,.83.78,2.31,2.31,0,0,1-2,2.22A1,1,0,0,1,101.21,13.21Z" transform="translate(-3.49 -5.91)" style="fill:#e6e6e6"/><path d="M113.71,19.66a4.62,4.62,0,0,1-4,2,5.33,5.33,0,0,1-3.85,1.88c-1.3,0-2.5-1.3-2.6-3.58a4.91,4.91,0,0,1,2.27-4.2,8.5,8.5,0,0,1,4.68-1.85c.55,0,1.37.23,1.37.9,0,.38-.3.53-.57.68.75.2.9.72.9,1.47a6.58,6.58,0,0,1-1,2.95c1.1.2,1.8-.75,2.58-1.32Zm-7.63-1.18a3.68,3.68,0,0,0-1,2.3c0,.73.47.95,1.1.95a2.78,2.78,0,0,0,1.92-1,2.77,2.77,0,0,1-.3-1.15c0-1.3,1.18-2.87,1.08-2.92A15.45,15.45,0,0,0,106.08,18.48Z" transform="translate(-3.49 -5.91)" style="fill:#e6e6e6"/></svg>